<?xml version="1.0" encoding="UTF-8"?>
<svg id="Layer_1" data-name="Layer 1" xmlns="http://www.w3.org/2000/svg" xmlns:xlink="http://www.w3.org/1999/xlink" viewBox="0 0 789.61 553.53">
  <defs>
    <style>
      .cls-1 {
        fill: url(#linear-gradient);
      }

      .cls-1, .cls-2 {
        stroke-width: 0px;
      }

      .cls-3 {
        font-family: Roboto-Light, Roboto;
        font-size: 14px;
        font-weight: 300;
      }

      .cls-3, .cls-4 {
        fill: #16163b;
      }

      .cls-4 {
        font-family: Roboto-Bold, Roboto;
        font-size: 45.52px;
        font-weight: 700;
      }

      .cls-2 {
        fill: url(#linear-gradient-2);
      }
    </style>
    <linearGradient id="linear-gradient" x1="345.8" y1="251.13" x2="485.71" y2="175.56" gradientUnits="userSpaceOnUse">
      <stop offset="0" stop-color="#9e02f8"/>
      <stop offset="1" stop-color="#1a03ee"/>
    </linearGradient>
    <linearGradient id="linear-gradient-2" x1="336.07" y1="233.13" x2="475.99" y2="157.56" xlink:href="#linear-gradient"/>
  </defs>
  <g>
    <text class="cls-3" transform="translate(311.09 352.56)"><tspan x="0" y="0">BOOKS STORE</tspan></text>
    <text class="cls-4" transform="translate(255.74 323.43)"><tspan x="0" y="0">MajesticMind</tspan></text>
  </g>
  <g>
    <path class="cls-1" d="M420.6,201.41c-3.81,0-7.43.83-10.69,2.32-8.92,4.06-15.11,13.05-15.11,23.48,0-10.44-6.19-19.43-15.11-23.48-3.25-1.49-6.88-2.32-10.69-2.32h-24.11v35.47l34.79,29.84v-29.83h10v29.84h10.22v-29.84h10v29.83l34.79-29.84v-35.47h-24.11Z"/>
    <path class="cls-2" d="M394.8,210.85c2.18-3.99,5.46-7.26,9.44-9.44h0c-3.99-2.18-7.26-5.46-9.44-9.44-2.18,3.99-5.46,7.26-9.44,9.44h0c3.99,2.18,7.26,5.46,9.44,9.44Z"/>
  </g>
</svg>